<?xml version="1.0" standalone="no"?>
<!DOCTYPE svg PUBLIC "-//W3C//DTD SVG 20010904//EN"
 "http://www.w3.org/TR/2001/REC-SVG-20010904/DTD/svg10.dtd">
<svg version="1.0" xmlns="http://www.w3.org/2000/svg"
 width="310.000000pt" height="310.000000pt" viewBox="0 0 310.000000 310.000000"
 preserveAspectRatio="xMidYMid meet">
<metadata>
Created by potrace 1.11, written by Peter Selinger 2001-2013
</metadata>
<g transform="translate(0.000000,310.000000) scale(0.100000,-0.100000)"
fill="#000000" stroke="none">
<path d="M824 2955 c-67 -14 -158 -56 -226 -103 -66 -46 -180 -168 -235 -254
-80 -122 -116 -216 -121 -321 -5 -107 11 -160 68 -211 54 -48 121 -66 250 -66
133 0 230 23 343 82 129 67 277 220 277 285 0 34 -12 28 -54 -27 -109 -142
-275 -267 -406 -304 -122 -34 -264 -29 -319 12 -97 71 -94 218 9 428 88 182
250 367 380 435 60 31 72 34 155 34 80 0 96 -4 141 -28 66 -37 88 -74 94 -162
4 -51 8 -65 14 -50 5 11 24 53 42 94 39 85 37 92 -36 123 -100 44 -262 58
-376 33z"/>
<path d="M2343 2189 c-22 -4 -59 -17 -80 -27 -59 -31 -247 -167 -452 -331
-242 -192 -258 -204 -264 -194 -3 5 -1 31 5 58 5 28 10 91 10 140 1 233 -128
337 -347 280 -69 -18 -141 -62 -185 -112 -42 -48 -29 -56 18 -10 97 95 270
100 356 11 73 -75 93 -237 47 -384 -39 -128 -127 -286 -223 -401 -44 -54 -48
-68 -13 -45 15 10 45 16 78 16 52 0 53 0 66 38 7 20 45 97 85 171 57 107 85
148 141 205 192 194 537 439 715 507 30 12 79 22 107 23 29 0 53 4 53 7 0 9
-43 45 -60 51 -8 2 -34 1 -57 -3z"/>
<path d="M2436 1619 c-88 -12 -219 -57 -294 -100 -88 -52 -248 -218 -302 -314
-188 -334 -106 -548 209 -547 137 1 273 51 406 152 36 27 68 50 71 50 11 0
-102 -200 -181 -320 -135 -208 -255 -330 -375 -382 -51 -23 -157 -27 -203 -9
-22 9 -28 8 -25 -1 13 -38 197 -35 294 5 214 87 342 249 618 780 78 149 104
191 128 203 43 22 29 27 -39 15 -32 -6 -118 -14 -190 -18 -102 -5 -133 -9
-133 -20 0 -10 10 -12 38 -8 90 11 163 16 171 10 17 -10 -18 -88 -71 -159
-204 -272 -614 -378 -713 -185 -64 122 81 454 287 660 59 60 96 87 163 120 80
40 94 43 181 47 58 3 112 0 139 -8 111 -31 184 -112 171 -192 -10 -62 10 -44
37 35 42 119 42 114 5 137 -78 48 -248 69 -392 49z"/>
</g>
</svg>
