<svg xmlns="http://www.w3.org/2000/svg" viewBox="0 0 90.77 84.68"><defs><style>.bf9681ef-c9e1-4816-a5c3-e32ce619877f,.e9005f07-e0ca-4bba-9a03-c8507a9d9609,.fd4c9afc-b0a4-462c-a6f2-0a9e73f16ab8{fill:none;stroke:#181716;}.e9005f07-e0ca-4bba-9a03-c8507a9d9609,.fd4c9afc-b0a4-462c-a6f2-0a9e73f16ab8{stroke-miterlimit:10;stroke-width:2px;}.bf9681ef-c9e1-4816-a5c3-e32ce619877f{stroke-miterlimit:10;stroke-width:2px;}.fd4c9afc-b0a4-462c-a6f2-0a9e73f16ab8{stroke-linecap:round;}</style></defs><g id="bab0350c-7e99-4bf0-bede-f936c554b5c8" data-name="Ebene 2"><g id="e4db84a0-7fa3-4a63-a171-fa2f4ec32536" data-name="Your Icon"><path class="e9005f07-e0ca-4bba-9a03-c8507a9d9609" d="M88.33,77.29S91.92,68.2,81.5,63.5c-8.41-3.79-10.47-.79-14-3.61-3.3-2.61-9.52-12.24-14-18.58-9.2-13.14-5.43-28.13-5.43-28.13L22.71,1.3s-2.85,5-3,6.91a30.47,30.47,0,0,1-.8,4,76.1,76.1,0,0,0-5.75,5.33C10.49,20.44,6.78,27,6.78,27c-2.59,6-4.12,11.9-2.33,14.38,0,0-4.26,5-3.31,6.61,0,0,38.39,30.72,55.47,35.74l27.64-.11s3.09.11,4.82-1.91c1.92-2.23-.74-4.37-.74-4.37s-23.17,0-28.94-1.78C42.93,70.46,4.45,41.33,4.45,41.33"/><circle class="e9005f07-e0ca-4bba-9a03-c8507a9d9609" cx="37.6" cy="27.34" r="2.58"/><circle class="e9005f07-e0ca-4bba-9a03-c8507a9d9609" cx="42.65" cy="40.83" r="2.58"/><circle class="bf9681ef-c9e1-4816-a5c3-e32ce619877f" cx="51.48" cy="51.66" r="2.58"/><line class="e9005f07-e0ca-4bba-9a03-c8507a9d9609" x1="69.84" y1="61.07" x2="65.71" y2="76.48"/><line class="e9005f07-e0ca-4bba-9a03-c8507a9d9609" x1="42.65" y1="40.83" x2="50.24" y2="36.65"/><line class="e9005f07-e0ca-4bba-9a03-c8507a9d9609" x1="47.63" y1="16.91" x2="18.79" y2="12.56"/><line class="fd4c9afc-b0a4-462c-a6f2-0a9e73f16ab8" x1="31.87" y1="83.68" x2="58.34" y2="83.68"/><line class="fd4c9afc-b0a4-462c-a6f2-0a9e73f16ab8" x1="25.64" y1="83.68" x2="17.71" y2="83.68"/><line class="e9005f07-e0ca-4bba-9a03-c8507a9d9609" x1="57.34" y1="46.37" x2="51.48" y2="51.67"/><line class="e9005f07-e0ca-4bba-9a03-c8507a9d9609" x1="47.12" y1="24.76" x2="37.6" y2="27.34"/><line class="fd4c9afc-b0a4-462c-a6f2-0a9e73f16ab8" x1="56.61" y1="83.68" x2="57.91" y2="79.93"/></g></g></svg>